<svg width="201" height="34" viewBox="0 0 201 34" fill="none" xmlns="http://www.w3.org/2000/svg">
<g clip-path="url(#clip0_4243_60)">
<path d="M26.7168 21.0687C26.7168 14.006 32.4318 8.29102 39.4945 8.29102C42.3776 8.29102 45.1071 9.19518 47.359 10.9694C48.5361 11.8736 48.7408 13.5283 47.8367 14.6543C46.9325 15.7802 45.3289 15.9849 44.203 15.0808C42.8041 14.0572 41.2687 13.5283 39.4945 13.5283C35.3831 13.5283 31.9541 16.9573 31.9541 21.0687C31.9541 25.1801 35.366 28.6603 39.4945 28.6603C41.2516 28.6603 42.8041 28.1315 44.203 27.0567C45.3289 26.2037 46.9325 26.4084 47.8367 27.5344C48.7408 28.6603 48.5361 30.3151 47.359 31.2193C45.1071 32.9764 42.3946 33.8976 39.4945 33.8976C32.4318 33.8976 26.7168 28.1826 26.7168 21.0687Z" fill="#AAAAAA"/>
<path d="M50.8398 21.0687C50.8398 14.006 56.5548 8.29102 63.6175 8.29102C66.5006 8.29102 69.2301 9.19518 71.482 10.9694C72.6591 11.8736 72.8638 13.5283 71.9597 14.6543C71.0555 15.7802 69.4519 15.9849 68.326 15.0808C66.9271 14.0572 65.3917 13.5283 63.6175 13.5283C59.5061 13.5283 56.0771 16.9573 56.0771 21.0687C56.0771 25.1801 59.5061 28.6603 63.6175 28.6603C65.3746 28.6603 66.9271 28.1315 68.326 27.0567C69.4519 26.2037 71.0555 26.4084 71.9597 27.5344C72.8638 28.6603 72.6591 30.3151 71.482 31.2193C69.2301 32.9764 66.5176 33.8976 63.6175 33.8976C56.5548 33.8976 50.8398 28.1826 50.8398 21.0687Z" fill="#AAAAAA"/>
<path d="M80.6922 19.2092L94.9542 19.158C94.4765 15.6266 91.6957 13.17 88.0109 13.17C84.326 13.17 81.4429 15.4731 80.6922 19.2092ZM97.6837 22.8429L80.7434 22.8941C81.4429 26.1525 84.1042 28.3532 87.7379 28.7797C90.041 29.0526 92.8217 28.882 95.6024 26.8007C96.8819 26.3742 98.332 26.4766 98.8608 27.7049C99.3897 28.9844 98.6391 30.2638 97.4108 30.9633C95.1589 32.9934 91.7469 34.1193 86.9873 33.6928C80.0952 32.9422 75.3867 27.5514 75.3867 21.0345C75.3867 14.0401 81.0505 8.37622 87.9938 8.37622C94.9371 8.37622 100.174 13.6136 100.174 20.3522C100.174 21.5805 99.2191 22.604 98.042 22.8088C97.9396 22.8599 97.769 22.8599 97.6666 22.8599" fill="#AAAAAA"/>
<path d="M104.884 31.441C103.604 30.9121 103.007 29.4109 103.502 28.1314C104.031 26.8007 105.532 26.2037 106.812 26.7325C111.725 29.7862 117.815 29.0356 117.883 26.3572C117.883 25.0265 116.058 23.9006 113.346 23.3035C105.549 21.3246 104.048 17.6909 104.253 14.9613C104.526 11.0546 108.791 8.22271 113.874 8.3933C116.757 8.3933 119.061 9.19511 121.091 10.3722C122.37 10.9693 122.967 12.5047 122.37 13.733C121.773 15.0125 120.289 15.6608 119.009 15.0125C114.625 12.2829 110.036 13.5795 109.865 15.439C109.763 16.1384 110.514 17.742 114.352 18.595C122.37 20.6251 123.547 24.1053 123.547 26.3401C123.547 29.9227 120.613 33.7099 113.977 33.8805C110.241 33.9317 106.863 32.4304 104.884 31.4239" fill="#AAAAAA"/>
<path d="M128.187 31.441C126.908 30.9121 126.311 29.4109 126.806 28.1314C127.334 26.8007 128.836 26.2037 130.115 26.7325C135.028 29.7862 141.119 29.0356 141.187 26.3572C141.187 25.0265 139.361 23.9006 136.649 23.3035C128.853 21.3246 127.351 17.6909 127.556 14.9613C127.829 11.0546 132.094 8.22271 137.178 8.3933C140.061 8.3933 142.364 9.19511 144.394 10.3722C145.674 10.9693 146.271 12.5047 145.674 13.733C145.077 15.0125 143.592 15.6608 142.313 15.0125C137.928 12.2829 133.339 13.5795 133.169 15.439C133.066 16.1384 133.817 17.742 137.656 18.595C145.674 20.6251 146.851 24.1053 146.851 26.3401C146.851 29.9227 143.916 33.7099 137.28 33.8805C133.544 33.9317 130.166 32.4304 128.187 31.4239" fill="#AAAAAA"/>
<path d="M161.266 0.529053H153.385V23.9008H161.266V0.529053Z" fill="#AAAAAA"/>
<path d="M173.241 7.09684C172.456 7.57451 171.825 8.2569 171.348 9.12694C170.887 10.014 170.648 11.0376 170.648 12.2147C170.648 13.3919 170.887 14.4155 171.348 15.3026C171.808 16.1897 172.439 16.855 173.241 17.3327C174.026 17.8103 174.913 18.0492 175.885 18.0492C176.858 18.0492 177.745 17.8103 178.53 17.3327C179.314 16.855 179.946 16.1726 180.423 15.3026C180.884 14.4155 181.123 13.3919 181.123 12.2147C181.123 11.0376 180.884 10.014 180.423 9.12694C179.963 8.23984 179.331 7.57451 178.53 7.09684C177.745 6.61917 176.858 6.38033 175.885 6.38033C174.913 6.38033 174.026 6.61917 173.241 7.09684ZM190.352 26.8349C189.533 27.8073 188.544 28.5579 187.384 29.0527C186.224 29.5474 184.944 29.8033 183.545 29.8033C182.146 29.8033 180.884 29.6327 179.775 29.2915C178.666 28.9503 177.54 28.3703 176.431 27.5514C175.322 26.7326 174.043 25.5896 172.627 24.0883C170.665 23.6959 168.942 22.9282 167.458 21.8023C165.974 20.6764 164.797 19.2945 163.978 17.6568C163.142 16.002 162.732 14.1937 162.732 12.2147C162.732 9.87757 163.295 7.77923 164.438 5.91972C165.581 4.06021 167.151 2.61013 169.147 1.56949C171.143 0.528851 173.412 0 175.92 0C178.427 0 180.696 0.528851 182.692 1.56949C184.688 2.61013 186.258 4.06021 187.401 5.91972C188.527 7.77923 189.107 9.87757 189.107 12.2147C189.107 14.7737 188.424 17.0426 187.077 19.0045C185.712 20.9664 183.886 22.4335 181.566 23.3547C181.89 23.713 182.232 23.9689 182.59 24.1054C182.931 24.2418 183.323 24.3271 183.75 24.3271C184.91 24.3271 185.985 23.8324 186.991 22.8259L190.386 26.8349H190.352Z" fill="#AAAAAA"/>
<path d="M197.568 20.6936C197.756 20.5571 197.841 20.3524 197.841 20.0795C197.841 19.8065 197.756 19.6188 197.568 19.4824C197.381 19.3459 197.125 19.2776 196.801 19.2776H195.896V20.9154H196.801C197.125 20.9154 197.381 20.8471 197.568 20.6936ZM198.302 20.8642C198.148 21.086 197.944 21.2395 197.671 21.3419L198.609 22.7919H197.892L197.039 21.4783H195.913V22.7919H195.214V18.6806H196.852C197.363 18.6806 197.773 18.8 198.063 19.0559C198.353 19.3118 198.506 19.653 198.506 20.0795C198.506 20.3865 198.438 20.6595 198.285 20.8642M198.268 23.4743C198.745 23.2014 199.121 22.809 199.411 22.3313C199.684 21.8537 199.82 21.3077 199.82 20.7277C199.82 20.1477 199.684 19.6018 199.411 19.1241C199.138 18.6464 198.762 18.2711 198.302 17.9982C197.824 17.7252 197.295 17.5887 196.698 17.5887C196.101 17.5887 195.572 17.7252 195.095 18.0152C194.617 18.2882 194.242 18.6806 193.969 19.1582C193.696 19.6359 193.559 20.1647 193.559 20.7618C193.559 21.3589 193.696 21.8707 193.969 22.3655C194.242 22.8431 194.617 23.2355 195.095 23.5085C195.572 23.7814 196.101 23.9349 196.681 23.9349C197.261 23.9349 197.807 23.7985 198.285 23.5085M198.524 17.5887C199.069 17.8958 199.513 18.3394 199.82 18.8853C200.127 19.4312 200.298 20.0453 200.298 20.7107C200.298 21.376 200.144 21.9901 199.82 22.5531C199.496 23.1161 199.052 23.5596 198.506 23.8667C197.961 24.1908 197.346 24.3444 196.664 24.3444C195.982 24.3444 195.385 24.1908 194.839 23.8667C194.293 23.5426 193.849 23.099 193.542 22.5531C193.218 21.9901 193.064 21.393 193.064 20.7277C193.064 20.0624 193.218 19.4482 193.542 18.9023C193.866 18.3394 194.293 17.9129 194.856 17.5887C195.402 17.2646 196.033 17.1111 196.698 17.1111C197.363 17.1111 197.995 17.2646 198.541 17.5887" fill="#AAAAAA"/>
<path d="M17.3846 25.8625C16.907 27.1079 16.1052 28.0803 14.9622 28.7456C13.8192 29.428 12.5056 29.7522 11.0384 29.7522C9.5713 29.7522 8.36006 29.4451 7.50708 28.8139C6.65409 28.1827 6.24466 27.3467 6.24466 26.272C6.24466 24.0542 7.93357 22.9283 11.3285 22.9283H17.4017V25.8455L17.3846 25.8625ZM23.2702 18.9875C23.2702 15.422 22.2978 12.7436 20.336 10.9694C18.3741 9.19521 15.5422 8.30811 11.8573 8.30811C9.79308 8.30811 7.83121 8.58106 5.98876 9.10991C4.36809 9.58758 2.74742 10.3212 1.485 11.1571C1.00733 11.4812 0.580838 11.8906 0.307883 12.3854C-0.0503711 13.0507 -0.255087 14.0231 0.614958 15.0126C2.20151 16.838 4.67517 14.6543 6.72233 13.9549C8.08711 13.4943 9.72484 13.1872 11.1408 13.1872C13.205 13.1872 14.7745 13.6649 15.8152 14.6031C16.8729 15.5414 17.3846 16.8891 17.3846 18.6463V19.0216H10.902C7.30236 19.0216 4.65811 19.704 2.98626 21.0688C1.31441 22.4335 0.46142 24.2419 0.46142 26.4938C0.46142 27.9438 0.853793 29.2233 1.60442 30.3663C2.37211 31.5093 3.46393 32.4135 4.87988 33.0447C6.29584 33.6929 7.93357 34 9.81014 34C11.6867 34 13.2903 33.71 14.638 33.13C15.9687 32.5499 16.9923 31.714 17.7258 30.6222L17.777 30.6904C17.7429 30.861 17.7258 31.0316 17.7258 31.2193C17.7258 32.7376 18.9541 33.9659 20.4895 33.9659C22.0249 33.9659 23.2361 32.7376 23.2361 31.2193C23.2361 31.1852 23.2361 31.1681 23.2361 31.1511C23.2532 31.0146 23.2873 30.8781 23.2873 30.7246V18.9704L23.2702 18.9875Z" fill="#AAAAAA"/>
</g>
<defs>
<clipPath id="clip0_4243_60">
<rect width="201" height="34" fill="#AAAAAA"/>
</clipPath>
</defs>
</svg>
