<svg width="72" height="38" viewBox="0 0 72 38" fill="none" xmlns="http://www.w3.org/2000/svg">
<g clip-path="url(#clip0_4016_1203)">
<path d="M23.5203 25.2449H20.3633V37.7559H23.5203V25.2449Z" fill="#049FD9"/>
<path d="M48.9765 28.83C48.8495 28.764 47.8345 28.1619 46.3245 28.1619C44.2795 28.1619 42.8645 29.5829 42.8645 31.4989C42.8645 33.3579 44.2205 34.839 46.3245 34.839C47.8085 34.839 48.8405 34.2499 48.9765 34.1749V37.533C48.5845 37.644 47.5075 37.978 46.0975 37.978C42.5485 37.978 39.4355 35.5299 39.4355 31.4989C39.4355 27.7629 42.2555 25.0229 46.0975 25.0229C47.5835 25.0229 48.6795 25.384 48.9765 25.472V28.83Z" fill="#049FD9"/>
<path d="M16.0234 28.83C15.8964 28.764 14.8814 28.1619 13.3714 28.1619C11.3264 28.1619 9.91142 29.5829 9.91142 31.4989C9.91142 33.3579 11.2674 34.839 13.3714 34.839C14.8554 34.839 15.8874 34.2499 16.0234 34.1749V37.533C15.6314 37.644 14.5544 37.978 13.1444 37.978C9.59542 37.978 6.48242 35.5299 6.48242 31.4989C6.48242 27.7629 9.30242 25.0229 13.1444 25.0229C14.6304 25.0229 15.7264 25.384 16.0234 25.472V28.83Z" fill="#049FD9"/>
<path d="M58.9078 28.2088C57.0348 28.2088 55.6438 29.6828 55.6438 31.4988C55.6438 33.3188 57.0348 34.7918 58.9078 34.7918C60.7788 34.7918 62.1738 33.3188 62.1738 31.4988C62.1738 29.6828 60.7788 28.2088 58.9078 28.2088ZM65.5188 31.4988C65.5188 35.0778 62.7558 37.9778 58.9078 37.9778C55.0598 37.9778 52.3008 35.0778 52.3008 31.4988C52.3008 27.9258 55.0598 25.0228 58.9078 25.0228C62.7558 25.0228 65.5188 27.9258 65.5188 31.4988Z" fill="#049FD9"/>
<path d="M35.4929 28.0887C35.4459 28.0737 34.1169 27.7067 33.0249 27.7067C31.7599 27.7067 31.0719 28.1307 31.0719 28.7317C31.0719 29.4937 31.9999 29.7597 32.5189 29.9237L33.3899 30.2007C35.4389 30.8527 36.3729 32.2557 36.3729 33.7797C36.3729 36.9227 33.6089 37.9787 31.1929 37.9787C29.5139 37.9787 27.9409 37.6697 27.7859 37.6367V34.7577C28.0639 34.8277 29.3879 35.2227 30.7669 35.2227C32.3379 35.2227 33.0599 34.7637 33.0599 34.0547C33.0599 33.4207 32.4349 33.0547 31.6519 32.8087C31.4609 32.7447 31.1739 32.6547 30.9779 32.5907C29.2199 32.0347 27.7539 31.0017 27.7539 28.9307C27.7539 26.5907 29.5059 25.0197 32.4159 25.0197C33.9529 25.0197 35.3989 25.3927 35.4929 25.4177V28.0887Z" fill="#049FD9"/>
<path d="M3.135 11.7995C3.135 10.9375 2.431 10.2385 1.568 10.2385C0.705 10.2385 0 10.9375 0 11.7995V15.0835C0 15.9505 0.705 16.6505 1.568 16.6505C2.431 16.6505 3.135 15.9505 3.135 15.0835V11.7995Z" fill="#049FD9"/>
<path d="M11.7444 7.48903C11.7444 6.62703 11.0404 5.92603 10.1774 5.92603C9.31338 5.92603 8.60938 6.62703 8.60938 7.48903V15.084C8.60938 15.951 9.31338 16.65 10.1774 16.65C11.0404 16.65 11.7444 15.951 11.7444 15.084V7.48903Z" fill="#049FD9"/>
<path d="M20.3538 1.59154C20.3538 0.729541 19.6497 0.029541 18.7867 0.029541C17.9227 0.029541 17.2188 0.729541 17.2188 1.59154V18.2045C17.2188 19.0715 17.9227 19.7715 18.7867 19.7715C19.6497 19.7715 20.3538 19.0715 20.3538 18.2045V1.59154Z" fill="#049FD9"/>
<path d="M28.9631 7.48903C28.9631 6.62703 28.2591 5.92603 27.3961 5.92603C26.5321 5.92603 25.8281 6.62703 25.8281 7.48903V15.084C25.8281 15.951 26.5321 16.65 27.3961 16.65C28.2591 16.65 28.9631 15.951 28.9631 15.084V7.48903Z" fill="#049FD9"/>
<path d="M37.5625 11.7995C37.5625 10.9375 36.8635 10.2385 36.0045 10.2385C35.1415 10.2385 34.4375 10.9375 34.4375 11.7995V15.0835C34.4375 15.9505 35.1415 16.6505 36.0045 16.6505C36.8635 16.6505 37.5625 15.9505 37.5625 15.0835V11.7995Z" fill="#049FD9"/>
<path d="M37.5666 11.7995C37.5666 10.9375 36.8626 10.2385 35.9996 10.2385C35.1366 10.2385 34.4316 10.9375 34.4316 11.7995V15.0835C34.4316 15.9505 35.1366 16.6505 35.9996 16.6505C36.8626 16.6505 37.5666 15.9505 37.5666 15.0835V11.7995Z" fill="#049FD9"/>
<path d="M46.176 7.48903C46.176 6.62703 45.472 5.92603 44.609 5.92603C43.745 5.92603 43.041 6.62703 43.041 7.48903V15.084C43.041 15.951 43.745 16.65 44.609 16.65C45.472 16.65 46.176 15.951 46.176 15.084V7.48903Z" fill="#049FD9"/>
<path d="M54.7854 1.59154C54.7854 0.729541 54.0814 0.029541 53.2184 0.029541C52.3544 0.029541 51.6504 0.729541 51.6504 1.59154V18.2045C51.6504 19.0715 52.3544 19.7715 53.2184 19.7715C54.0814 19.7715 54.7854 19.0715 54.7854 18.2045V1.59154Z" fill="#049FD9"/>
<path d="M63.3948 7.48903C63.3948 6.62703 62.6908 5.92603 61.8278 5.92603C60.9638 5.92603 60.2598 6.62703 60.2598 7.48903V15.084C60.2598 15.951 60.9638 16.65 61.8278 16.65C62.6908 16.65 63.3948 15.951 63.3948 15.084V7.48903Z" fill="#049FD9"/>
<path d="M71.9941 11.7995C71.9941 10.9375 71.2951 10.2385 70.4361 10.2385C69.5731 10.2385 68.8691 10.9375 68.8691 11.7995V15.0835C68.8691 15.9505 69.5731 16.6505 70.4361 16.6505C71.2951 16.6505 71.9941 15.9505 71.9941 15.0835V11.7995Z" fill="#049FD9"/>
<path d="M70.1937 36.1082V36.3042H69.6357V37.7552H69.4067V36.3042H68.8457V36.1082H70.1937Z" fill="#049FD9"/>
<path d="M70.3105 36.1082H70.6695L71.1625 37.4592H71.1705L71.6475 36.1082H71.9995V37.7552H71.7645V36.4052H71.7565L71.2565 37.7552H71.0396L70.5515 36.4052H70.5406V37.7552H70.3105V36.1082Z" fill="#049FD9"/>
</g>
<defs>
<clipPath id="clip0_4016_1203">
<rect width="72" height="38" fill="white"/>
</clipPath>
</defs>
</svg>
