<svg width="1000" height="360" viewBox="0 0 1000 360" fill="none" xmlns="http://www.w3.org/2000/svg">
<g clip-path="url(#clip0_4243_39)">
<path d="M500 0C223.747 0 0 80.4369 0 179.961C0 279.454 223.762 359.914 500 359.914C776.272 359.914 1000 279.45 1000 179.961C1000 80.4331 776.276 0 500 0Z" fill="#AAAAAA"/>
<path d="M502.532 344.13C236.511 344.13 20.8633 269.82 20.8633 178.146C20.8633 86.4615 236.515 12.1551 502.532 12.1551C768.528 12.1551 984.164 86.4578 984.164 178.146C984.164 269.816 768.52 344.13 502.532 344.13ZM502.532 26.5364C245.858 26.5364 37.7958 94.4024 37.7958 178.146C37.7958 261.894 245.85 329.768 502.532 329.768C759.203 329.768 967.231 261.891 967.231 178.146C967.231 94.4024 759.188 26.5364 502.532 26.5364Z" fill="white"/>
<path d="M376.889 53.4922C370.053 53.5137 363.182 53.7797 356.266 54.3457C310.325 58.1744 266.597 83.7857 266.518 122.67C266.469 142.388 280.626 158.365 302.563 157.662C328.339 156.797 349.5 136.349 360.578 110.568C364.781 100.787 356.997 96.7239 353.293 102.355C346.842 112.193 337.855 120.108 327.281 125.266C315.153 131.147 302.189 129.56 298.258 119.809C292.732 106.051 304.218 85.4644 330.43 75.7773C368.29 61.8988 407.903 71.0794 446.02 78.1699C446.564 78.1699 448.594 79.2849 446.799 80.2109C439.973 83.896 433.253 86.8927 422.783 95.8125C415.277 102.177 405.45 110.651 397.85 119.881C390.306 128.978 384.958 137.093 377.883 146.088C376.896 147.388 375.682 147.328 375.697 147.328C358.451 150.212 341.568 152.144 326.109 162.787C322.912 164.972 321.524 168.849 323.463 171.816C325.205 174.447 329.19 174.726 331.957 172.734C341.561 165.621 351.448 162.273 362.787 161.963C363.282 161.993 363.52 162.073 363.66 162.375C363.747 162.545 363.694 162.903 363.49 163.168C346.505 186.499 342.251 191.772 329.473 206.236C322.938 213.671 316.509 219.945 309.328 226.477C280.316 253.164 249.111 252.703 237.916 235.971C231.226 225.928 232.108 215.387 236.492 206.641C241.889 195.929 252.796 188.079 261.867 183.494C265.235 181.793 266.203 177.53 262.832 173.645C260.689 171.112 255.491 170.662 251.621 171.365C239.738 173.538 225.697 182.433 217.4 193.137C208.05 205.148 203.379 219.73 204.947 236.096C207.763 265.625 232.319 282.683 260.197 282.486C282.381 282.315 303.276 275.66 328.418 250.389C351.855 226.819 373.207 191.613 393.201 158.965C393.829 157.922 394.274 157.362 397.313 156.988C409.853 155.435 428.371 153.667 440.238 152.986C442.877 152.843 443.413 152.872 444.471 154.176C447.562 158.039 452.207 161.317 455.926 163.313C457.74 164.288 458.603 164.774 460.027 164.797C461.785 164.835 463.153 163.898 464.037 162.908C465.296 161.54 465.643 159.75 464.963 158.598C464.252 157.388 455.976 152.847 455.731 151.01C455.549 149.865 456.815 149.588 456.815 149.588C462.9 147.698 469.23 143.809 473.066 136.533C476.835 129.371 477.443 119.812 470.549 114.498C464.498 109.83 455.355 110.567 448.061 117.049C440.925 123.342 438.564 132.497 439.527 140.521C439.701 141.912 439.629 142.38 437.713 142.539C426.745 143.408 416.176 143.71 404.422 144.326C403.636 144.383 403.387 143.869 403.844 143.328C417.378 120.046 437.587 103.466 459.94 87.1387C461.421 86.0388 460.969 83.9473 460.908 82.2012C501.267 90.8828 540.269 107.041 582.139 106.697C599.453 106.557 616.029 103.95 631.873 95.3437C645.808 87.8186 651.463 80.8571 651.879 73.623C652.204 68.6227 648.692 65.4619 643.692 66.5391C601.387 76.1619 561.029 76.0556 518.94 71.0137C470.867 65.2361 424.738 53.3423 376.889 53.4922ZM461.334 120.967C462.323 121.019 463.248 121.347 463.996 121.982C466.226 123.868 465.171 128.574 462.918 131.832C460.458 135.426 456.285 138.529 452.479 139.285C451.715 139.425 451.054 139.1 450.74 137.426C450.12 132.992 451.577 127.055 456.362 122.871C457.859 121.56 459.686 120.88 461.334 120.967ZM800.941 121.816C793.25 121.816 783.163 121.83 775.147 121.83C773.238 121.83 772.251 122.061 771.348 123.818C768.392 129.431 732.341 182.924 725.629 193.314C724.503 194.894 723.12 194.674 722.961 192.871C722.281 186.703 716.902 179.613 708.424 176.219C701.961 173.622 695.641 173.154 689.076 174.016C677.22 175.592 666.658 181.791 657.367 188.771C643.372 199.313 631.298 212.959 615.707 223.051C607.195 228.542 595.543 233.333 587.746 226.189C580.69 219.711 581.483 205.318 592.281 194.191C593.419 193.023 594.784 193.998 594.568 195.045C593.548 200.079 594.803 205.084 598.662 208.596C603.372 212.772 610.113 213.248 615.881 210.459C622.692 207.122 626.692 200.669 627.863 193.344C629.666 181.986 620.833 171.967 609.789 171.166C600.813 170.542 592.207 173.634 583.824 180.49C579.618 183.941 577.224 186.496 573.592 191.613C572.704 192.876 571.343 193.004 571.389 191.141C571.808 176.601 565.73 168.419 553.586 168.15C544.167 167.931 534.096 172.987 526.25 179.185C517.648 186.027 510.126 195.09 502.065 203.609C501.063 204.66 500.186 204.611 499.906 202.574C499.661 192.94 497.214 183.608 492.709 176.982C491.118 174.677 487.765 173.535 484.945 175.092C483.645 175.799 479.114 177.859 475.822 180.486C474.186 181.82 473.553 183.751 474.272 186.227C478.618 200.615 477.662 216.981 471.766 230.807C466.35 243.461 455.824 254.883 443.457 258.746C435.308 261.305 426.834 260.053 421.592 252.898C414.392 243.026 417.303 225.86 428.029 211.6C437.505 199.051 451.199 191.076 464.869 185.939C466.479 185.327 466.807 184.308 466.354 182.955C465.609 180.725 464.427 177.7 463.94 176.312C462.689 173.013 459.177 172.473 454.895 172.937C444.966 174.083 436.012 177.45 427.164 182.141C403.995 194.424 392.384 218.198 387.289 230.92C384.84 237.024 382.743 240.842 380.033 244.221C376.382 248.767 371.797 252.903 363.414 260.193C362.658 260.862 362.092 262.256 362.727 263.549C363.585 265.306 367.942 271.399 369.174 271.943C370.538 272.608 372.121 271.68 372.756 271.226C378.622 267.292 385.641 261.051 389.076 256.818C390.278 255.371 391.52 255.98 392.158 258.18C395.363 269.503 403.756 278.747 415.363 282.613C436.605 289.707 458.64 279.44 475.27 261.566C485.837 250.209 489.652 242.902 493.703 237.935C500.567 229.511 514.113 210.667 530.24 198.568C536.155 194.108 543.159 190.706 546.682 192.963C549.505 194.777 550.416 198.99 545.881 207.154C529.44 236.888 505.234 271.823 500.797 280.301C499.988 281.771 500.695 282.924 502.248 282.924C510.854 282.886 519.389 282.904 527.201 282.904C528.498 282.844 529.084 282.258 529.734 281.347C542.354 261.788 554.233 243.163 566.963 223.914C567.681 222.78 568.335 223.659 568.361 224.154C568.626 228.618 569.732 234.73 572.408 238.744C577.224 246.159 584.043 249.345 591.609 249.394C597.627 249.462 600.669 248.556 607.158 246.156C611.699 244.469 615.995 242.186 619.934 239.367C621.835 238.063 622.166 240.249 622.117 240.586C619.199 256.116 622.806 274.513 638.393 282.144C657.049 291.253 677.542 278.452 689.334 266.898C690.487 265.783 691.731 265.9 691.848 268.297C692.097 272.711 694.108 277.947 697.797 281.613C707.677 291.432 727.618 287.542 747.631 272.201C760.482 262.385 773.925 248.511 786.068 233.82C786.518 233.253 786.854 232.334 785.985 231.412C784.133 229.496 781.458 227.303 779.625 225.613C778.79 224.91 777.56 225.111 776.854 225.644C764.408 237.365 753.205 250.734 737.006 261.789C731.545 265.561 722.844 268.608 718.932 263.369C717.409 261.336 717.584 258.519 719.084 254.826C723.812 243.162 798.568 130.463 802.445 123.826L802.453 123.818C803.118 122.662 802.415 121.816 800.941 121.816ZM696.193 192.273C698.151 192.256 699.984 192.629 701.652 193.424C710.859 197.774 707.919 208.331 703.803 216.619C703.663 216.879 703.576 217.163 703.548 217.457C703.519 217.75 703.55 218.047 703.637 218.328C703.788 219.19 704.92 220.025 706.035 220.422C706.425 220.566 706.646 220.845 706.204 221.752C703.021 228.498 700.103 232.388 696.116 238.246C692.457 243.662 688.329 247.884 683.325 251.951C675.784 258.131 665.316 264.854 656.66 260.334C652.813 258.353 651.153 253.027 651.229 248.715C651.429 236.582 656.861 224.133 666.922 211.895C676.89 199.746 687.712 192.348 696.193 192.273Z" fill="white"/>
</g>
<defs>
<clipPath id="clip0_4243_39">
<rect width="1000" height="359.914" fill="white"/>
</clipPath>
</defs>
</svg>
