<svg width="90" height="38" viewBox="0 0 90 38" fill="none" xmlns="http://www.w3.org/2000/svg">
<g clip-path="url(#clip0_4016_1223)">
<path d="M28.9146 7.02182H1.97099V1.97361H28.9146V7.02182ZM30.8398 0.0244141H0.0449219V8.9661H30.8398V0.0244141Z" fill="#00B188"/>
<path d="M1.97186 23.7505H0.046875V14.8063H1.97186V18.3396H5.4112V14.8063H7.33618V23.7505H5.4112V20.0451H1.97186V23.7505Z" fill="#040404"/>
<path d="M10.2689 19.8027H12.5618C12.5191 19.1452 12.2506 18.6869 11.5001 18.6869C10.9339 18.6869 10.4385 18.9305 10.2689 19.8027ZM11.7265 23.8658C9.77346 23.8658 8.44336 22.6211 8.44336 20.5762C8.44336 18.5869 9.74539 17.2139 11.4721 17.2139C13.3544 17.2139 14.2885 18.487 14.2885 20.39V21.1055H10.2689C10.4959 22.0918 11.2598 22.349 12.0243 22.349C12.6893 22.349 13.1701 22.2065 13.7644 21.834H13.8357V23.3076C13.3263 23.6802 12.6039 23.8658 11.7265 23.8658Z" fill="#040404"/>
<path d="M19.299 20.0001L18.3082 23.748H16.6242L14.6992 17.4563V17.3847H16.5394L17.5864 21.1475L18.5772 17.3847H20.0776L21.0825 21.1475L22.1441 17.3847H23.9135V17.4563L21.9885 23.748H20.3039L19.299 20.0001Z" fill="#040404"/>
<path d="M27.0107 23.8491C25.4823 23.8491 24.8594 23.2341 24.8594 21.7895V14.7637H26.7276V21.66C26.7276 22.1035 26.8972 22.2608 27.2651 22.2608C27.3927 22.2608 27.5769 22.2182 27.6898 22.175H27.7185V23.7344C27.5629 23.7911 27.2938 23.8485 27.0107 23.8485" fill="#040404"/>
<path d="M30.0853 19.8027H32.3782C32.3355 19.1452 32.067 18.6869 31.3166 18.6869C30.751 18.6869 30.2549 18.9305 30.0853 19.8027ZM31.5429 23.8658C29.5899 23.8658 28.2598 22.6211 28.2598 20.5762C28.2598 18.5869 29.5618 17.2139 31.2885 17.2139C33.1708 17.2139 34.1049 18.487 34.1049 20.39V21.1055H30.0853C30.3117 22.0918 31.0762 22.349 31.84 22.349C32.5057 22.349 32.9865 22.2065 33.5814 21.834H33.6522V23.3076C33.1427 23.6802 32.4209 23.8658 31.5429 23.8658Z" fill="#040404"/>
<path d="M41.8 17.3847H43.1868V18.9009H41.8V21.4904C41.8 22.0486 42.0123 22.3064 42.5785 22.3064C42.7341 22.3064 42.9324 22.2916 43.1447 22.2201H43.1868V23.7079C42.9464 23.7942 42.5785 23.8936 42.041 23.8936C40.526 23.8936 39.9318 23.1928 39.9318 21.5761V18.9009H37.54V21.4904C37.54 22.0486 37.7523 22.3064 38.3179 22.3064C38.4741 22.3064 38.6724 22.2916 38.8848 22.2201H38.9269V23.7079C38.6865 23.7942 38.3179 23.8936 37.781 23.8936C36.2661 23.8936 35.6718 23.1928 35.6718 21.5761V18.9009H34.709V17.3847H35.6718V15.6396H37.54V17.3847H39.9318V15.6396H41.8V17.3847Z" fill="#040404"/>
<path d="M49.4633 19.1611C50.4407 19.1611 50.9068 18.6035 50.9068 17.8023C50.9068 16.972 50.4407 16.4144 49.4633 16.4144H48.246V19.1611H49.4633ZM52.8605 17.8023C52.8605 19.7484 51.5725 20.8063 49.6188 20.8063H48.246V23.7103H46.3223V14.7662H49.6188C51.5725 14.7662 52.8605 15.8247 52.8605 17.7992" fill="#040404"/>
<path d="M56.9808 21.7272V21.1838C56.6977 21.0271 56.3304 20.9698 55.9479 20.9698C55.3396 20.9698 54.9716 21.198 54.9716 21.7131C54.9716 22.2429 55.3396 22.4718 55.8911 22.4718C56.4146 22.4718 56.8112 22.1997 56.9808 21.7272ZM57.0376 23.1009C56.6269 23.6018 56.0192 23.8448 55.367 23.8448C54.1364 23.8448 53.1309 23.0874 53.1309 21.7414C53.1309 20.4973 54.1364 19.6676 55.5793 19.6676C56.0321 19.6676 56.5 19.7392 56.9808 19.8817V19.7682C56.9808 19.081 56.5989 18.7812 55.5946 18.7812C54.957 18.7812 54.3487 18.9663 53.8246 19.2673H53.7544V17.7505C54.2352 17.4649 55.0851 17.2212 55.9192 17.2212C57.8161 17.2212 58.8491 18.1366 58.8491 19.7392V23.7301H57.0376V23.1009Z" fill="#040404"/>
<path d="M59.7637 20.5429C59.7637 18.4968 61.1938 17.2095 63.0621 17.2095C63.7271 17.2095 64.3495 17.3526 64.8168 17.6955V19.3123H64.7454C64.3348 18.9977 63.854 18.8114 63.3025 18.8114C62.3683 18.8114 61.6606 19.456 61.6606 20.5429C61.6606 21.6297 62.3683 22.2595 63.3025 22.2595C63.854 22.2595 64.3348 22.0732 64.7454 21.758H64.8168V23.3748C64.3495 23.7183 63.7271 23.8615 63.0621 23.8615C61.1938 23.8615 59.7637 22.5889 59.7637 20.5429Z" fill="#040404"/>
<path d="M67.8657 20.839V23.7283H65.998V14.7841H67.8657V19.8767L69.7486 17.3588H71.8712V17.4304L69.607 20.3202L71.8712 23.6536V23.7252H69.7339L67.8657 20.8359" fill="#040404"/>
<path d="M76.0662 21.7272V21.1838C75.7837 21.0271 75.4151 20.9698 75.0332 20.9698C74.4249 20.9698 74.057 21.198 74.057 21.7131C74.057 22.2429 74.4249 22.4718 74.9758 22.4718C75.5006 22.4718 75.8965 22.1997 76.0662 21.7272ZM76.1229 23.1009C75.7123 23.6018 75.1034 23.8448 74.4529 23.8448C73.2211 23.8448 72.2168 23.0874 72.2168 21.7414C72.2168 20.4973 73.2211 19.6676 74.6659 19.6676C75.1186 19.6676 75.5848 19.7392 76.0662 19.8817V19.7682C76.0662 19.081 75.6842 18.7812 74.6793 18.7812C74.0429 18.7812 73.4334 18.9663 72.9099 19.2673H72.8391V17.7505C73.3205 17.4649 74.1698 17.2212 75.0045 17.2212C76.902 17.2212 77.935 18.1366 77.935 19.7392V23.7301H76.1229V23.1009Z" fill="#040404"/>
<path d="M81.0927 18.3716C81.432 17.6703 81.928 17.2699 82.6217 17.2699C82.8762 17.2699 83.1306 17.3273 83.2288 17.3847V19.1871H83.1587C82.9463 19.1007 82.6919 19.044 82.338 19.044C81.7578 19.044 81.3051 19.3876 81.1489 20.0451V23.7079H79.2812V17.3421H81.0927V18.3722" fill="#040404"/>
<path d="M88.1712 21.5792V19.5331C87.86 19.0754 87.45 18.8756 86.982 18.8756C86.162 18.8756 85.6098 19.477 85.6098 20.5639C85.6098 21.6507 86.162 22.2373 86.982 22.2373C87.45 22.2373 87.86 22.0369 88.1712 21.5792ZM88.2273 23.0818C87.8313 23.5969 87.2084 23.8824 86.3597 23.8824C84.7459 23.8824 83.7129 22.3952 83.7129 20.5639C83.7129 18.7325 84.7459 17.2305 86.3597 17.2305C87.1803 17.2305 87.7746 17.4883 88.1712 17.9602V14.7989H90.0394V23.7369H88.2273V23.0793" fill="#040404"/>
<path d="M0.0664062 26.662H5.52957V27.7488H1.29766V30.4808H5.13298V31.5399H1.29766V34.5155H5.52957V35.6024H0.0664062V26.6644" fill="#040404"/>
<path d="M10.0252 29.1787C11.426 29.1787 12.2046 30.1089 12.2046 31.6386V35.6018H11.0301V31.6676C11.0301 30.8522 10.6194 30.2655 9.72804 30.2655C8.99221 30.2655 8.36926 30.738 8.15694 31.4098V35.6018H6.98242V29.3101H8.15694V30.2254C8.52485 29.6388 9.1478 29.1811 10.0252 29.1811" fill="#040404"/>
<path d="M15.3459 29.2773H16.9451V30.2932H15.3459V33.6834C15.3459 34.3983 15.7138 34.6419 16.3788 34.6419C16.5625 34.6419 16.7608 34.6136 16.9023 34.5562H16.9451V35.5715C16.7754 35.6431 16.5344 35.7004 16.2092 35.7004C14.751 35.7004 14.1714 35.0275 14.1714 33.7981V30.2932H13.0957V29.2773H14.1714V27.6044H15.3459V29.2773Z" fill="#040404"/>
<path d="M18.9086 31.8434H22.0081C21.966 30.9138 21.5127 30.1989 20.5505 30.1989C19.6591 30.1989 19.0782 30.8712 18.9086 31.8434ZM20.7628 35.735C18.9367 35.735 17.6914 34.5044 17.6914 32.5305C17.6914 30.556 18.8519 29.1829 20.5365 29.1829C22.2491 29.1829 23.1405 30.4277 23.1405 32.2727V32.8167H18.8659C18.9934 34.0899 19.8006 34.7049 20.9184 34.7049C21.6121 34.7049 22.107 34.5476 22.6591 34.1324H22.7019V35.1774C22.1924 35.5777 21.5267 35.735 20.7628 35.735Z" fill="#040404"/>
<path d="M25.7429 30.2642C26.0119 29.5919 26.6068 29.1915 27.2853 29.1915C27.555 29.1915 27.7954 29.2341 27.8942 29.2915V30.4641H27.8521C27.6819 30.379 27.3988 30.3358 27.1157 30.3358C26.4793 30.3358 25.9412 30.7645 25.7429 31.48V35.5857H24.5684V29.2939H25.7429V30.2667" fill="#040404"/>
<path d="M31.6472 34.6562C32.8077 34.6562 33.4874 33.7266 33.4874 32.4528C33.4874 31.1945 32.8077 30.2507 31.6472 30.2507C31.0103 30.2507 30.416 30.6369 30.1048 31.2512V33.6698C30.416 34.2842 31.0103 34.6562 31.6472 34.6562ZM31.8455 29.1774C33.6991 29.1774 34.69 30.7084 34.69 32.4528C34.69 34.1991 33.6991 35.7295 31.8455 35.7295C31.081 35.7295 30.43 35.3291 30.1048 34.8992V38.0186H28.9297V29.3088H30.1048V30.0237C30.43 29.5802 31.081 29.1799 31.8455 29.1799" fill="#040404"/>
<path d="M37.2605 30.2642C37.5289 29.5919 38.1238 29.1915 38.8029 29.1915C39.0719 29.1915 39.3123 29.2341 39.4112 29.2915V30.4641H39.3691C39.1995 30.379 38.9164 30.3358 38.6333 30.3358C37.9963 30.3358 37.4587 30.7645 37.2605 31.48V35.5857H36.0859V29.2939H37.2605V30.2667" fill="#040404"/>
<path d="M41.1177 26.7606C41.5283 26.7606 41.8675 27.0894 41.8675 27.5045C41.8675 27.9196 41.5283 28.2484 41.1177 28.2484C40.7217 28.2484 40.3672 27.9196 40.3672 27.5045C40.3672 27.0894 40.7217 26.7606 41.1177 26.7606Z" fill="#040404"/>
<path d="M40.5312 35.5938H41.7066V29.2971H40.5312V35.5938Z" fill="#040404"/>
<path d="M45.9 31.8927C46.7914 32.1783 47.7816 32.5503 47.7816 33.7519C47.7816 35.0398 46.7346 35.698 45.3905 35.698C44.5692 35.698 43.7486 35.4975 43.2812 35.1256V33.9955H43.338C43.8621 34.4816 44.64 34.6963 45.3758 34.6963C46.0409 34.6963 46.6358 34.4384 46.6358 33.895C46.6358 33.3374 46.141 33.2084 45.1635 32.8797C44.2861 32.5935 43.3099 32.2641 43.3099 31.0773C43.3099 29.8609 44.3002 29.1459 45.5601 29.1459C46.2959 29.1459 46.947 29.3032 47.4704 29.661V30.8059H47.4284C46.9195 30.3907 46.324 30.1471 45.5882 30.1471C44.8524 30.1471 44.4417 30.4765 44.4417 30.92C44.4417 31.4208 44.8945 31.5633 45.9 31.8927Z" fill="#040404"/>
<path d="M50.0004 31.8434H53.0993C53.0572 30.9138 52.6045 30.1989 51.6417 30.1989C50.7503 30.1989 50.17 30.8712 50.0004 31.8434ZM51.854 35.735C50.0285 35.735 48.7832 34.5044 48.7832 32.5305C48.7832 30.556 49.9437 29.1829 51.6277 29.1829C53.3409 29.1829 54.2317 30.4277 54.2317 32.2727V32.8167H49.9577C50.0852 34.0899 50.8918 34.7049 52.0096 34.7049C52.7039 34.7049 53.1988 34.5476 53.7503 34.1324H53.793V35.1774C53.2842 35.5777 52.6185 35.735 51.854 35.735Z" fill="#040404"/>
</g>
<defs>
<clipPath id="clip0_4016_1223">
<rect width="90" height="38" fill="white"/>
</clipPath>
</defs>
</svg>
