<svg width="125" height="26" viewBox="0 0 125 26" fill="none" xmlns="http://www.w3.org/2000/svg">
<g clip-path="url(#clip0_4016_1274)">
<path d="M12.7419 0.000358192H5.31085V0.642095H7.67845V13.1175C7.67845 16.862 6.65244 17.9177 4.36254 17.9177C2.91946 17.9177 2.68476 16.8123 2.68476 16.2347C2.68476 14.8742 2.60706 14.0368 1.37806 14.0368C0.145894 14.0368 0 15.2978 0 15.6876C0 17.4043 1.31304 18.7198 4.68921 18.7198C8.70605 18.7198 10.2982 17.3449 10.2982 12.7822V0.635678L12.7419 0.642095V0.000358192Z" fill="black"/>
<path d="M13.2414 15.8212C12.8307 15.8212 12.4866 15.9559 12.2106 16.2447C11.922 16.5303 11.7793 16.872 11.7793 17.2924C11.7793 17.7047 11.922 18.04 12.2106 18.3159C12.4993 18.6079 12.8434 18.7411 13.2414 18.7411C13.6521 18.7411 13.9947 18.6079 14.2896 18.3159C14.5703 18.04 14.7114 17.7047 14.7114 17.2924C14.7114 16.872 14.5703 16.5287 14.2896 16.2447C14.001 15.9559 13.6648 15.8212 13.2414 15.8212Z" fill="black"/>
<path d="M29.1667 15.8212C28.7576 15.8212 28.4134 15.9559 28.1328 16.2447C27.8473 16.5303 27.7109 16.872 27.7109 17.2924C27.7109 17.7047 27.8473 18.04 28.1328 18.3159C28.4293 18.6079 28.7639 18.7411 29.1667 18.7411C29.5758 18.7411 29.9247 18.6079 30.2165 18.3159C30.5051 18.04 30.6415 17.7047 30.6415 17.2924C30.6415 16.872 30.5051 16.5287 30.2165 16.2447C29.9279 15.9559 29.579 15.8212 29.1667 15.8212Z" fill="black"/>
<path d="M24.5478 0.000288679H17.2706V0.642026H19.4067V14.8726C19.4067 15.9892 19.3432 16.0373 19.2211 16.3662C19.0847 16.7288 18.7882 17.0128 18.3442 17.1973C18.0159 17.3384 17.518 17.4138 16.8535 17.4347V18.2545H24.6842V17.4347C24.0198 17.4138 23.5139 17.3384 23.1809 17.2197C22.7146 17.0304 22.4117 16.7609 22.2659 16.3855C22.1358 16.0694 22.0645 15.7854 22.0645 15.2223V10.589L24.0055 10.5777C29.6319 10.5777 31.2129 8.33486 31.2129 5.27056C31.2129 2.17097 30.2456 0.000288679 24.5478 0.000288679ZM23.5551 9.88305H22.0645V0.722243L23.414 0.704596C27.7527 0.704596 28.7042 2.50948 28.7042 5.43902C28.7042 8.38138 26.9947 9.88305 23.5551 9.88305Z" fill="black"/>
<path d="M53.6005 16.3194C53.499 15.9889 53.4483 15.5895 53.4483 15.0761V0.643387H55.3322V4.45386e-05H50.7413C50.6763 0.168501 45.2005 13.9498 45.2005 13.9498C45.1752 14.0012 45.126 14.0316 45.0768 14.0316C45.015 14.0316 44.969 14.0012 44.9436 13.9498C44.9436 13.9498 39.1206 0.168501 39.0524 4.45386e-05H33.9477V0.64499H36.0631V14.5145L36.014 15.806C35.9807 16.1462 35.8744 16.4478 35.7111 16.6916C35.5367 16.9531 35.2591 17.1537 34.8928 17.2852C34.6486 17.3607 34.2886 17.4184 33.8398 17.4248V18.2543H39.0302V17.4345C38.5972 17.4184 38.4149 17.3719 38.158 17.2852C37.7853 17.1617 37.5046 16.974 37.3207 16.6997C37.1542 16.4606 37.0479 16.1542 37.0114 15.806C37.0114 15.806 36.9528 14.521 36.9528 14.5145V2.55416H37.2525C37.2525 2.55416 43.8288 18.0842 43.897 18.2543H44.4489L50.67 2.72903H50.8317V15.0761C50.8317 15.6167 50.773 16.029 50.67 16.3515C50.5463 16.7285 50.2798 17.0141 49.8961 17.2098C49.6106 17.3366 49.1745 17.4136 48.6021 17.4345V18.2543H55.7001V17.4345C55.134 17.404 54.6931 17.327 54.3966 17.1922C53.9843 16.9852 53.7147 16.6981 53.6005 16.3194Z" fill="black"/>
<path d="M63.1496 4.88217C59.358 4.88217 56.9824 7.42345 56.9824 11.8659C56.9824 18.3555 61.9888 18.795 63.0624 18.795C65.2 18.795 69.2518 17.4426 69.2518 11.7391C69.2518 7.29831 66.659 4.88217 63.1496 4.88217ZM63.1004 17.9865C60.2508 17.9865 59.8115 16.5474 59.8115 11.9349C59.8115 8.37002 60.0303 5.69237 63.1004 5.69237C66.4148 5.69237 66.4259 8.45986 66.4259 11.7119C66.4259 16.3773 65.6393 17.9865 63.1004 17.9865Z" fill="black"/>
<path d="M79.16 5.08273C76.8923 5.08273 76.1121 6.43519 75.4904 7.81653C75.4904 7.81653 75.3255 7.79888 75.3128 7.81011C75.2938 7.81653 74.8577 5.19182 74.8577 5.19182H70.5586V5.88169H72.9246V8.65721V14.8724C72.9246 15.7596 72.8818 16.4607 72.6519 16.8313C72.3886 17.2645 71.8479 17.4346 70.9455 17.4346H70.5586V18.2544H77.912V17.4346H77.5123C76.5498 17.4346 76.0534 17.2196 75.7965 16.7993C75.5634 16.4238 75.4619 15.7917 75.4619 14.8724V10.2166C75.4619 8.63796 76.7099 6.84109 78.1197 6.84109C79.5929 6.84109 79.6405 8.98129 81.2231 8.2112C82.3506 7.66412 82.1001 5.08273 79.16 5.08273Z" fill="black"/>
<path d="M108.431 16.9242C107.648 16.9242 107.394 16.4814 107.342 15.7386L107.292 14.0765V8.60085C107.292 7.42326 107.101 6.63232 106.417 5.93443C105.743 5.24135 104.43 4.88198 102.54 4.88198C100.716 4.88198 99.365 5.2237 98.5087 5.89111C97.6651 6.53445 97.3463 7.13448 97.3463 7.98638C97.3463 8.38426 97.4462 8.66662 97.6651 8.85273C97.8918 9.05006 98.1487 9.14151 98.4691 9.14151C99.1985 9.14151 99.6029 8.7693 99.7551 7.79867C99.8725 7.07191 100.026 6.6628 100.385 6.28738C100.753 5.89111 101.339 5.69217 102.132 5.69217C103.055 5.69217 103.709 5.94084 104.07 6.44461C104.411 6.91629 104.582 7.55642 104.582 8.34897V10.5373C102.231 10.7539 96.6708 11.2031 96.9181 15.4899C97.0181 17.1648 98.4738 18.6328 100.359 18.6328C102.448 18.6328 103.764 17.4344 104.665 16.4766C104.808 17.3798 105.642 18.474 107.164 18.474C108.878 18.474 109.901 17.6269 110.015 15.5043H109.573C109.46 16.4236 108.9 16.9242 108.431 16.9242ZM104.582 15.5412C104.582 15.5894 104.578 15.6182 104.536 15.6487L104.489 15.6969C103.226 16.8504 102.262 17.2643 101.561 17.2643C99.7551 17.2643 99.4887 15.7418 99.4887 14.9893C99.4887 12.5523 102.781 11.3427 104.582 11.3427V15.5412Z" fill="black"/>
<path d="M123.451 16.8427C123.763 17.247 124.223 17.3801 125 17.4347V18.2545H118.88V17.4411C119.327 17.4042 119.676 17.308 119.9 17.1523C120.2 16.9454 120.288 16.6277 120.365 16.2346C120.417 15.8897 120.439 15.3859 120.439 14.6704V10.4013C120.439 9.36485 120.368 8.06051 120.017 7.35781C119.713 6.73212 119.189 6.42569 118.225 6.42569C117.149 6.42569 116.189 6.94229 115.661 7.88243C115.184 8.74236 115.187 10.1317 115.187 11.5756V15.025C115.187 15.9122 115.299 16.5202 115.548 16.8732C115.774 17.2037 116.207 17.3801 116.849 17.4267V18.2545H110.496V17.4347C110.989 17.4122 111.359 17.3545 111.6 17.247C111.984 17.0849 112.237 16.8122 112.342 16.4127C112.44 16.0806 112.499 15.5769 112.499 14.8806V5.87861L110.496 5.87379V5.19836L114.502 5.19195L114.955 7.56156L115.157 7.55675C115.667 6.5412 116.789 5.03793 119.369 5.03793C120.089 5.03793 120.744 5.17911 121.308 5.4695C121.869 5.75988 122.318 6.20108 122.643 6.78827C122.96 7.38669 123.062 8.11987 123.062 8.97178V14.8918C123.062 15.5592 123.133 16.432 123.451 16.8427Z" fill="black"/>
<path d="M94.7444 4.35579C94.3638 4.47772 94.1164 4.82266 93.9737 5.39541C93.8817 5.92645 93.6772 6.23448 93.4155 6.31951C93.1507 6.39812 92.6987 6.40454 92.5021 6.25213C91.8408 5.63446 90.5785 4.88202 88.3552 4.88202C84.7761 4.88202 83.1982 7.46341 83.1982 9.81217C83.1982 12.5668 84.2464 13.9048 86.5474 14.3958C86.6901 14.4198 86.6901 14.5819 86.5648 14.6108C84.6064 15.007 82.8636 15.5894 82.8636 17.4777C82.8636 18.6136 83.509 19.2345 84.3352 19.5778C85.2518 19.9548 86.522 20.149 88.1395 20.1826C89.5446 20.1955 90.5389 20.2452 91.1954 20.3206C91.8931 20.4024 92.445 20.6078 92.8605 20.911C93.2886 21.2351 93.5107 21.7244 93.5107 22.3678C93.5107 23.2405 93.0428 23.9384 92.1263 24.4598C91.2683 24.9395 90.0996 25.1994 88.6391 25.1994C87.3974 25.1994 86.3761 25.0647 85.45 24.4807C84.7665 24.0475 84.6333 23.2133 84.7761 22.6036C84.9093 21.9907 84.692 21.3458 83.9847 21.2239C83.5978 21.1597 83.1141 21.3667 82.8842 21.7244C82.6749 22.0549 82.6035 22.448 82.6035 22.9181C82.6035 24.4695 83.7897 25.1994 84.6936 25.4658C86.0732 25.8893 86.9914 26 88.2632 26C89.941 26 91.3159 25.7337 92.2896 25.2331C93.2696 24.7358 93.9563 24.1197 94.3178 23.417C94.7016 22.7095 94.8855 21.9859 94.8855 21.2929C94.8855 20.3527 94.6778 19.5906 94.2877 19.0227C93.0095 17.2467 91.1954 17.4777 87.1151 17.2852C85.1471 17.2852 84.7665 16.9242 84.7665 16.3146C84.7665 15.4113 85.4992 15.0616 88.3362 14.6204C91.1367 14.1824 93.7438 13.1412 93.7438 9.68703C93.7438 8.69394 93.5138 7.83882 93.2395 7.2404C93.8199 7.36875 94.348 7.36875 94.8459 7.20832C95.412 7.02863 95.7784 6.74466 95.9893 6.34197C96.2033 5.93928 96.2842 5.47883 96.1907 5.0986C96.0194 4.30285 95.4311 4.13921 94.7444 4.35579ZM88.4234 13.8696C86.7536 13.8696 85.7941 13.2567 85.7941 9.81217C85.7941 7.388 86.6299 5.58472 88.4234 5.58472C90.5056 5.58472 91.1177 7.22596 91.1177 9.76243C91.1177 13.3915 89.9838 13.8696 88.4234 13.8696Z" fill="black"/>
</g>
<defs>
<clipPath id="clip0_4016_1274">
<rect width="125" height="26" fill="white"/>
</clipPath>
</defs>
</svg>
