<svg width="607" height="147" viewBox="0 0 607 147" fill="none" xmlns="http://www.w3.org/2000/svg">
<path d="M492.185 60.9735V108.907C490.964 127.903 463.035 127.903 461.814 108.907V60.9735H435.398V114.099C435.398 132.04 454.002 146.586 476.902 146.586C499.802 146.586 518.406 132.04 518.406 114.099V60.9735H492.185ZM578.089 3.99854V143.499H604.652V3.99854H578.089ZM532.989 143.499H559.552V3.99854H532.989V143.499ZM402.893 70.936C410.252 64.3319 414.493 54.9402 414.614 45.061C414.598 36.1527 411.164 27.5985 405.023 21.1485C398.773 14.1819 387.464 10.2735 372.306 10.2735H326.869V143.499H385.56C408.023 143.153 426.185 126.161 426.185 105.344C426.152 90.1944 420.814 79.3652 402.893 70.936ZM380.639 120.29H355.223V33.2444H372.931C380.885 33.6152 387.135 40.2235 387.052 48.186C387.052 55.9819 380.723 62.2944 372.931 62.2777H363.714V86.2194H380.639C403.443 86.2194 403.443 120.403 380.639 120.403V120.29ZM92.6188 49.7152C92.523 39.1985 88.248 29.1444 80.723 21.7694C73.223 14.3985 63.0772 10.311 52.5522 10.411H3.93555V143.499H32.2022V33.2444H46.8397C56.7647 32.9027 65.0522 40.761 65.2147 50.6944C64.7772 60.6319 56.423 68.4027 46.4647 68.086H39.9022V99.9402L68.0272 143.499H101.152L62.0897 87.9152C79.8813 83.7777 92.5063 67.9777 92.6188 49.7152ZM142.056 57.5277C117.944 58.1777 98.7438 77.9027 98.7438 102.007C98.7438 126.132 117.944 145.853 142.056 146.511C160.59 146.511 175.031 138.124 182.502 125.011L160.902 115.028C157.777 121.349 151.277 125.282 144.248 125.119C134.627 125.54 126.51 118.061 126.152 108.436V107.524H184.71C184.89 105.749 184.969 103.982 184.952 102.186C185.365 73.311 166.34 57.5277 142.056 57.5277ZM126.056 92.3735C125.648 83.1277 133.04 75.4152 142.298 75.4152C151.54 75.4152 158.927 83.1277 158.527 92.3735H126.056ZM290.589 143.499V3.99854H263.994V70.0235C256.927 62.8944 247.306 58.8652 237.269 58.811C215.394 58.811 197.523 78.2819 197.523 102.282C197.523 126.274 215.34 145.936 237.269 145.936C247.41 145.853 257.077 141.686 264.119 134.411V143.786L290.589 143.499ZM244.806 123.115C234.065 123.115 225.306 113.561 225.306 101.778C225.306 89.9985 234.065 80.311 244.806 80.311C255.564 80.311 264.335 89.8819 264.335 101.682C264.335 113.499 255.598 123.115 244.806 123.115Z" fill="#AAAAAA"/>
</svg>
