<svg width="56" height="38" viewBox="0 0 56 38" fill="none" xmlns="http://www.w3.org/2000/svg">
<g clip-path="url(#clip0_4016_1297)">
<mask id="mask0_4016_1297" style="mask-type:luminance" maskUnits="userSpaceOnUse" x="0" y="0" width="56" height="38">
<path d="M0.0117188 0.0994873H55.8066V37.9005H0.0117188V0.0994873Z" fill="white"/>
</mask>
<g mask="url(#mask0_4016_1297)">
<path fill-rule="evenodd" clip-rule="evenodd" d="M23.1779 4.23774C24.979 2.41931 27.4856 1.29324 30.2549 1.29324C33.9472 1.29324 37.1472 3.28276 38.8702 6.24716C40.3997 5.584 42.0564 5.24163 43.7318 5.24245C50.3779 5.24245 55.7728 10.5147 55.7728 17.0205C55.7728 23.5262 50.3779 28.7985 43.7318 28.7985C42.9195 28.7985 42.1277 28.7193 41.3523 28.5697C39.8446 31.176 36.9626 32.9466 33.6805 32.9466C32.3443 32.9492 31.0251 32.6552 29.8241 32.0872C28.2959 35.5688 24.7369 38.016 20.5933 38.016C16.2651 38.016 12.5933 35.3699 11.1779 31.6495C10.548 31.7784 9.90587 31.8432 9.26204 31.8428C4.11332 31.8428 -0.0507812 27.7444 -0.0507812 22.7109C-0.0507812 19.3287 1.82409 16.3842 4.60563 14.7926C4.01552 13.4741 3.71178 12.0519 3.71332 10.6146C3.71332 4.80515 8.57486 0.109863 14.5646 0.109863C18.0723 0.109863 21.2108 1.73133 23.18 4.24808" fill="#00A1E0"/>
</g>
<path fill-rule="evenodd" clip-rule="evenodd" d="M8.08105 19.756C8.04597 19.8448 8.09356 19.8633 8.10484 19.879C8.20966 19.9526 8.31612 20.0059 8.42279 20.0658C8.99305 20.3583 9.53048 20.4438 10.0925 20.4438C11.2371 20.4438 11.9489 19.8529 11.9489 18.9019V18.8832C11.9489 18.0039 11.1448 17.6835 10.3941 17.4548L10.2958 17.4239C9.72761 17.2453 9.23735 17.0897 9.23735 16.7276V16.7091C9.23735 16.3987 9.52453 16.1699 9.96761 16.1699C10.4599 16.1699 11.0466 16.3289 11.422 16.53C11.422 16.53 11.5331 16.5997 11.5736 16.4956C11.5955 16.4393 11.7869 15.9425 11.8074 15.8868C11.8291 15.8285 11.791 15.7845 11.7518 15.7619C11.321 15.5072 10.7262 15.3341 10.1108 15.3341L9.99653 15.3345C8.94833 15.3345 8.21602 15.9493 8.21602 16.8286V16.8475C8.21602 17.7747 9.02423 18.0771 9.7791 18.286L9.90053 18.3226C10.4503 18.4865 10.9262 18.629 10.9262 19.003V19.0217C10.9262 19.3659 10.6164 19.6225 10.12 19.6225C9.92699 19.6225 9.31182 19.6194 8.64515 19.2107C8.56453 19.1651 8.51858 19.1323 8.45643 19.0955C8.42361 19.0762 8.34156 19.0414 8.30587 19.1457L8.08023 19.7544M24.8392 19.7544C24.8041 19.8432 24.8517 19.8617 24.8634 19.8774C24.9678 19.951 25.0747 20.0043 25.1814 20.0642C25.7516 20.3567 26.289 20.4422 26.8511 20.4422C27.9957 20.4422 28.7075 19.8513 28.7075 18.9003V18.8816C28.7075 18.0023 27.9055 17.682 27.1526 17.4532L27.0544 17.4223C26.4862 17.2437 25.9959 17.0881 25.9959 16.726V16.7075C25.9959 16.3971 26.2831 16.1683 26.7262 16.1683C27.2185 16.1683 27.8031 16.3273 28.1805 16.5284C28.1805 16.5284 28.2917 16.5981 28.3323 16.494C28.3541 16.4377 28.5457 15.9409 28.5641 15.8852C28.5861 15.8269 28.5477 15.7829 28.5087 15.7603C28.078 15.5056 27.4831 15.3325 26.8677 15.3325L26.7533 15.3329C25.705 15.3329 24.9727 15.9477 24.9727 16.8271V16.846C24.9727 17.7731 25.7809 18.0755 26.5358 18.2844L26.657 18.321C27.2088 18.4849 27.6827 18.6274 27.6827 19.0014V19.0201C27.6827 19.3643 27.3729 19.6209 26.8765 19.6209C26.6831 19.6209 26.0663 19.6178 25.4017 19.2091C25.321 19.1636 25.2739 19.1321 25.2127 19.0939C25.192 19.0812 25.0954 19.0446 25.0624 19.1441L24.8367 19.7529M36.2829 17.8907C36.2829 18.4278 36.1795 18.8516 35.9773 19.152C35.7754 19.4485 35.4706 19.5937 35.046 19.5937C34.6214 19.5937 34.3178 19.4497 34.1188 19.154C33.9184 18.8556 33.8173 18.4298 33.8173 17.8926C33.8173 17.3555 33.919 16.9337 34.1188 16.6373C34.3174 16.3428 34.6193 16.2015 35.046 16.2015C35.4726 16.2015 35.7762 16.3442 35.9773 16.6373C36.1807 16.9337 36.2829 17.3555 36.2829 17.8926M37.2388 16.8959C37.1446 16.5875 36.9988 16.3169 36.8039 16.0901C36.6088 15.8633 36.3629 15.6803 36.0696 15.549C35.7783 15.4167 35.4337 15.35 35.0439 15.35C34.6542 15.35 34.3116 15.4171 34.0183 15.549C33.727 15.6811 33.4788 15.8633 33.2839 16.0901C33.0895 16.3169 32.9434 16.5875 32.849 16.8959C32.7557 17.2023 32.7083 17.5365 32.7083 17.8926C32.7083 18.2488 32.7557 18.583 32.849 18.8894C32.9428 19.1978 33.089 19.4684 33.2839 19.6952C33.479 19.922 33.727 20.103 34.0183 20.2323C34.3116 20.3613 34.6562 20.4269 35.0439 20.4269C35.4316 20.4269 35.7762 20.3613 36.0675 20.2323C36.3588 20.1034 36.607 19.922 36.8019 19.6952C36.9965 19.4684 37.1424 19.1978 37.2367 18.8894C37.3299 18.583 37.3773 18.2488 37.3773 17.8926C37.3773 17.5385 37.3299 17.2023 37.2367 16.8959M45.0931 19.4425C45.0618 19.3524 44.9711 19.3864 44.9711 19.3864C44.8322 19.4379 44.6839 19.4857 44.526 19.5095C44.3668 19.5338 44.1896 19.5459 44.0029 19.5459C43.5414 19.5459 43.1721 19.4124 42.9096 19.148C42.6449 18.8834 42.4973 18.4577 42.4993 17.8807C42.5007 17.3555 42.6316 16.9615 42.8665 16.6591C43.0983 16.3607 43.4552 16.2055 43.927 16.2055C44.3208 16.2055 44.6224 16.2499 44.9383 16.3458C44.9383 16.3458 45.0132 16.3774 45.049 16.2817C45.1329 16.0569 45.1949 15.8958 45.2849 15.6491C45.3104 15.5784 45.248 15.5486 45.2253 15.54C45.1014 15.4931 44.8088 15.4161 44.5873 15.3836C44.3801 15.353 44.1401 15.3371 43.8694 15.3371C43.4673 15.3371 43.1104 15.4037 42.8047 15.5358C42.4991 15.6678 42.2406 15.8502 42.0355 16.077C41.8304 16.3038 41.6745 16.5744 41.5699 16.8828C41.4663 17.1891 41.414 17.5254 41.414 17.8815C41.414 18.6495 41.6273 19.2722 42.0499 19.7278C42.4724 20.1854 43.1083 20.4162 43.937 20.4162C44.4273 20.4162 44.9299 20.3201 45.2909 20.1814C45.2909 20.1814 45.3598 20.1492 45.3299 20.0712L45.094 19.4425M46.7658 17.3734C46.8115 17.0749 46.8958 16.8263 47.0283 16.6333C47.2267 16.3388 47.5288 16.1777 47.9535 16.1777C48.3781 16.1777 48.6591 16.3396 48.8601 16.6333C48.9935 16.8273 49.0517 17.0849 49.0735 17.3734L46.7555 17.373L46.7658 17.3734ZM49.9863 16.7168C49.9048 16.4204 49.7032 16.12 49.5719 15.9827C49.3627 15.7658 49.1596 15.6126 48.9565 15.5291C48.6633 15.4082 48.3479 15.3461 48.0294 15.3466C47.6253 15.3466 47.2581 15.4129 46.9606 15.5476C46.6632 15.6833 46.4129 15.8679 46.216 16.0987C46.0193 16.3295 45.8714 16.602 45.777 16.9144C45.6827 17.2228 45.6351 17.561 45.6351 17.9151C45.6351 18.2772 45.6845 18.6135 45.7818 18.9178C45.88 19.2242 46.0382 19.4928 46.2515 19.7157C46.4648 19.9405 46.7377 20.1155 47.0659 20.2389C47.392 20.3613 47.7879 20.4247 48.2413 20.4233C49.1766 20.4203 49.6689 20.2184 49.87 20.109C49.9059 20.0895 49.9397 20.0559 49.8975 19.959L49.6862 19.384C49.6538 19.2982 49.5643 19.3293 49.5643 19.3293C49.3325 19.4132 49.0043 19.564 48.2351 19.5621C47.7325 19.5613 47.3613 19.4174 47.1274 19.192C46.8895 18.9612 46.7705 18.625 46.752 18.1475L49.993 18.1499C49.993 18.1499 50.0784 18.1491 50.0872 18.0683C50.0907 18.0349 50.1982 17.4237 49.9906 16.7174L49.9863 16.7168ZM20.8581 17.3734C20.9038 17.0749 20.9883 16.8263 21.1206 16.6333C21.3192 16.3388 21.6211 16.1777 22.0458 16.1777C22.4704 16.1777 22.7514 16.3396 22.9524 16.6333C23.0856 16.8273 23.1438 17.0849 23.1658 17.3734L20.8478 17.373L20.8581 17.3734ZM24.0786 16.7168C23.9974 16.4204 23.7955 16.12 23.6642 15.9827C23.455 15.7658 23.2519 15.6126 23.0488 15.5291C22.7557 15.4082 22.4403 15.3461 22.1217 15.3466C21.7176 15.3466 21.3504 15.4129 21.0529 15.5476C20.7555 15.6833 20.5053 15.8679 20.3083 16.0987C20.112 16.3295 19.9637 16.602 19.8694 16.9144C19.7752 17.2228 19.7278 17.561 19.7278 17.9151C19.7278 18.2772 19.7768 18.6135 19.8747 18.9178C19.9727 19.2242 20.1311 19.4928 20.3424 19.7157C20.5557 19.9405 20.8285 20.1155 21.1567 20.2389C21.4829 20.3613 21.8767 20.4247 22.3321 20.4233C23.2675 20.4203 23.7598 20.2184 23.9608 20.109C23.9965 20.0895 24.0306 20.0559 23.9881 19.959L23.7768 19.384C23.7442 19.2982 23.6548 19.3293 23.6548 19.3293C23.423 19.4132 23.0948 19.564 22.3256 19.5621C21.825 19.5613 21.4517 19.4174 21.2179 19.192C20.9799 18.9612 20.8609 18.625 20.8425 18.1475L24.0835 18.1499C24.0835 18.1499 24.1688 18.1491 24.1777 18.0683C24.1811 18.0349 24.2886 17.4237 24.0808 16.7174L24.0786 16.7168ZM13.8632 19.4226C13.7362 19.3243 13.7186 19.3002 13.6765 19.2364C13.6123 19.1403 13.5795 19.0036 13.5795 18.8285C13.5795 18.554 13.6739 18.355 13.8687 18.2217C13.8667 18.2221 14.1477 17.9869 14.8082 17.9949C15.1022 18 15.3955 18.0243 15.6862 18.0675V19.494H15.6866C15.6866 19.494 15.2763 19.5798 14.8127 19.6068C14.1543 19.6452 13.863 19.423 13.865 19.4236L13.8632 19.4226ZM15.1514 17.2142C15.0201 17.2049 14.8499 17.2003 14.6468 17.2003C14.3699 17.2003 14.1011 17.2337 13.8509 17.2994C13.5986 17.3654 13.3709 17.4677 13.176 17.6038C12.9806 17.739 12.8199 17.916 12.7063 18.121C12.5916 18.328 12.5331 18.5707 12.5331 18.8452C12.5331 19.1238 12.583 19.3645 12.6815 19.5615C12.7779 19.7568 12.9232 19.9257 13.104 20.0529C13.2839 20.1798 13.5061 20.2737 13.7625 20.3294C14.0168 20.3857 14.304 20.4142 14.6199 20.4142C14.9522 20.4142 15.2825 20.3871 15.6025 20.3348C15.875 20.2892 16.1465 20.238 16.4168 20.1812C16.5247 20.1571 16.6445 20.1255 16.6445 20.1255C16.7245 20.1058 16.7184 20.0228 16.7184 20.0228L16.7165 17.1579C16.7165 16.5292 16.5434 16.0617 16.2017 15.7732C15.8611 15.4847 15.3627 15.3395 14.7165 15.3395C14.4745 15.3395 14.0827 15.3713 13.8488 15.4169C13.8488 15.4169 13.1432 15.5498 12.8519 15.771C12.8519 15.771 12.7879 15.8092 12.8228 15.8958L13.0525 16.4926C13.081 16.57 13.1588 16.5435 13.1588 16.5435C13.1588 16.5435 13.1832 16.5342 13.2119 16.5177C13.8335 16.1894 14.6211 16.1994 14.6211 16.1994C14.9699 16.1994 15.2406 16.268 15.4211 16.4023C15.5978 16.5338 15.6878 16.7326 15.6878 17.1504V17.2831C15.4109 17.2441 15.1545 17.2216 15.1545 17.2216L15.1514 17.2142ZM41.2027 15.5967C41.2074 15.5862 41.2098 15.5749 41.2099 15.5635C41.2099 15.5521 41.2076 15.5408 41.2031 15.5302C41.1986 15.5197 41.1919 15.5101 41.1835 15.5021C41.175 15.4942 41.165 15.4879 41.1541 15.4837C41.0989 15.4634 40.8238 15.4071 40.6125 15.3944C40.2064 15.3697 39.9807 15.4362 39.7777 15.5245C39.577 15.6122 39.3551 15.7533 39.232 15.9164L39.2316 15.5345C39.2316 15.4819 39.1933 15.4396 39.1387 15.4396H38.31C38.2562 15.4396 38.2173 15.4819 38.2173 15.5345V20.2099C38.2173 20.2351 38.2277 20.2593 38.2461 20.2772C38.2645 20.295 38.2895 20.3051 38.3155 20.3051H39.1647C39.1908 20.3051 39.2157 20.295 39.2341 20.2772C39.2525 20.2593 39.2628 20.2351 39.2628 20.2099V17.8622C39.2628 17.5479 39.2985 17.2355 39.3697 17.0385C39.4398 16.8438 39.5352 16.6884 39.6527 16.577C39.7649 16.4694 39.9021 16.3895 40.0527 16.3442C40.1941 16.3048 40.3405 16.2849 40.4876 16.2849C40.6568 16.2849 40.8425 16.3271 40.8425 16.3271C40.9048 16.3338 40.9395 16.2968 40.9606 16.2423C41.0162 16.0989 41.174 15.6693 41.2047 15.5838" fill="#FFFFFE"/>
<path fill-rule="evenodd" clip-rule="evenodd" d="M33.2714 13.4389C33.1664 13.4082 33.0596 13.3836 32.9516 13.3653C32.8063 13.3418 32.6591 13.3307 32.5118 13.3323C31.9266 13.3323 31.4652 13.4927 31.1413 13.8094C30.8197 14.1237 30.6008 14.6026 30.4911 15.2327L30.4515 15.4454H29.7169C29.7169 15.4454 29.6273 15.4418 29.6084 15.5367L29.4878 16.1893C29.4794 16.2517 29.5071 16.2907 29.5932 16.2903H30.3083L29.5828 20.2183C29.5259 20.5346 29.4609 20.7948 29.3889 20.992C29.3179 21.1866 29.2486 21.3324 29.1633 21.4382C29.0806 21.5407 29.0023 21.6161 28.8671 21.6601C28.7555 21.6965 28.6271 21.7132 28.4864 21.7132C28.408 21.7132 28.3038 21.7005 28.2269 21.6855C28.1499 21.6708 28.1099 21.6541 28.0523 21.6306C28.0523 21.6306 27.9684 21.5996 27.9354 21.6812C27.9085 21.7478 27.7179 22.2561 27.6954 22.319C27.6724 22.3811 27.7046 22.43 27.7452 22.4441C27.8404 22.4772 27.9112 22.4983 28.0408 22.5279C28.2209 22.5691 28.3727 22.5717 28.5149 22.5717C28.8127 22.5717 29.0841 22.5311 29.3091 22.4523C29.5356 22.3729 29.7327 22.2346 29.9071 22.0474C30.0956 21.8455 30.2142 21.634 30.3276 21.3455C30.4398 21.0596 30.5354 20.7047 30.6119 20.2911L31.3409 16.2903H32.4068C32.4068 16.2903 32.4966 16.2935 32.5153 16.199L32.6359 15.5464C32.6443 15.484 32.6168 15.445 32.5303 15.4454H31.4958C31.5009 15.4227 31.5479 15.0698 31.6667 14.7375C31.7173 14.5956 31.8127 14.4812 31.8935 14.4027C31.969 14.3278 32.0619 14.2717 32.1645 14.2391C32.2769 14.2054 32.3941 14.189 32.5118 14.1906C32.6092 14.1906 32.7048 14.2019 32.7776 14.2166C32.8779 14.2373 32.9169 14.2483 32.9432 14.2558C33.0486 14.2871 33.0628 14.2568 33.0835 14.2073L33.3309 13.5484C33.3563 13.4775 33.2944 13.4477 33.2714 13.4389ZM18.8152 20.2266C18.8152 20.2791 18.7766 20.3219 18.7225 20.3219H17.8644C17.81 20.3219 17.7715 20.2791 17.7715 20.2266V13.5283C17.7715 13.4759 17.81 13.4336 17.8644 13.4336H18.7225C18.7766 13.4336 18.8152 13.4759 18.8152 13.5283V20.2266Z" fill="#FFFFFE"/>
</g>
<defs>
<clipPath id="clip0_4016_1297">
<rect width="56" height="38" fill="white"/>
</clipPath>
</defs>
</svg>
