<svg width="794" height="189" viewBox="0 0 794 189" fill="none" xmlns="http://www.w3.org/2000/svg">
<path fill-rule="evenodd" clip-rule="evenodd" d="M756.363 39.1052V61.1357C744.949 56.8271 734.788 54.6485 725.894 54.6485C720.626 54.6485 716.431 55.624 713.277 57.51C710.123 59.4123 708.513 61.7537 708.513 64.5176C708.513 68.1921 712.074 71.4599 719.244 74.3867L739.958 84.4671C756.704 92.4502 765.013 103.051 765.013 116.367C765.013 127.439 760.606 136.267 751.713 142.803C742.884 149.405 730.999 152.672 716.204 152.672C709.375 152.672 703.246 152.38 697.799 151.762C692.352 151.177 686.093 149.974 679.15 148.25V125.195C691.881 129.504 703.473 131.682 713.911 131.682C726.365 131.682 732.56 128.073 732.56 120.789C732.56 117.163 730.024 114.237 724.87 111.944L701.863 102.14C693.377 98.3032 687.068 93.6533 682.938 88.1416C678.874 82.5811 676.809 76.2077 676.809 68.9238C676.809 58.7293 681.101 50.5187 689.588 44.2753C698.14 38.0806 709.489 34.9753 723.601 34.9753C728.186 34.9753 733.471 35.3816 739.324 36.1296C745.226 36.9263 750.9 37.9018 756.363 39.1052Z" fill="#AAAAAA"/>
<path fill-rule="evenodd" clip-rule="evenodd" d="M104.777 39.1052V61.1357C93.3631 56.8271 83.2177 54.6485 74.3241 54.6485C69.0399 54.6485 64.8617 55.624 61.7073 57.51C58.5533 59.4123 56.9435 61.7537 56.9435 64.5176C56.9435 68.1921 60.553 71.4599 67.7231 74.3867L88.4368 84.4671C105.118 92.4502 113.443 103.051 113.443 116.367C113.443 127.439 109.021 136.267 100.192 142.803C91.2983 149.405 79.4782 152.672 64.6341 152.672C57.8053 152.672 51.6594 152.38 46.2127 151.762C40.766 151.177 34.5714 149.974 27.5804 148.25V125.195C40.3597 129.504 51.9523 131.682 62.3252 131.682C74.7795 131.682 80.9742 128.073 80.9742 120.789C80.9742 117.163 78.454 114.237 73.3486 111.944L50.3426 102.14C41.7903 98.3032 35.4819 93.6533 31.4174 88.1416C27.2875 82.5811 25.2715 76.2077 25.2715 68.9238C25.2715 58.7293 29.5314 50.5187 38.0671 44.2753C46.5544 38.0806 57.919 34.9753 72.0318 34.9753C76.6655 34.9753 81.8847 35.3816 87.8026 36.1296C93.656 36.9263 99.3302 37.9018 104.777 39.1052Z" fill="#AAAAAA"/>
<path fill-rule="evenodd" clip-rule="evenodd" d="M128.514 37.04H162.251V150.608H128.514V37.04Z" fill="#AAAAAA"/>
<path fill-rule="evenodd" clip-rule="evenodd" d="M270.942 37.04V58.0304H220.816V83.2149H264.292V102.14H220.816V128.577H271.966V150.608H188.348V37.04H270.942Z" fill="#AAAAAA"/>
<path fill-rule="evenodd" clip-rule="evenodd" d="M428.44 37.04V150.608H396.945V75.7035L364.267 151.648H344.822L313.394 75.7035V150.608H290.615V37.04H331.798L359.91 106.563L389.322 37.04H428.44Z" fill="#AAAAAA"/>
<path fill-rule="evenodd" clip-rule="evenodd" d="M537.082 37.04V58.0304H487.23V83.2149H530.706V102.14H487.23V128.577H538.107V150.608H454.488V37.04H537.082Z" fill="#AAAAAA"/>
<path fill-rule="evenodd" clip-rule="evenodd" d="M655.46 37.04V150.608H619.675L579.518 77.7682V150.608H556.754V37.04H593.582L632.7 108.628V37.04H655.46Z" fill="#AAAAAA"/>
</svg>
