<svg width="242" height="61" viewBox="0 0 242 61" fill="none" xmlns="http://www.w3.org/2000/svg">
<g clip-path="url(#clip0_4243_19)">
<path d="M31.9393 37.56C36.5893 37.56 40.3593 33.79 40.3593 29.14C40.3593 24.49 36.5893 20.72 31.9393 20.72C27.2893 20.72 23.5193 24.49 23.5193 29.14C23.5193 33.79 27.2893 37.56 31.9393 37.56ZM31.9393 45.51C40.8893 45.51 48.1493 38.25 48.1493 29.3C48.1493 20.35 40.8893 13.09 31.9393 13.09C22.9893 13.09 15.7293 20.35 15.7293 29.3C15.7293 38.25 22.9893 45.51 31.9393 45.51ZM7.5293 29.3C7.5293 15.82 18.4593 4.90002 31.9393 4.90002C45.4193 4.90002 56.3493 15.83 56.3493 29.3C56.3493 42.77 45.4193 53.71 31.9393 53.71C18.4593 53.71 7.5293 42.78 7.5293 29.3Z" fill="#AAAAAA"/>
<path d="M64.2695 11.78H92.0795V18.8H82.5095V46.92H74.0195V18.85H64.2695V11.78Z" fill="#AAAAAA"/>
<path d="M133.959 18.85H126.159V25.87C126.159 25.87 132.239 25.89 133.149 25.87C135.589 25.82 137.479 24.73 137.479 22.34C137.479 19.74 135.879 18.86 133.949 18.86L133.959 18.85ZM118.059 11.78H134.559C143.939 11.78 145.239 18.2 145.239 21.94C145.239 27.37 140.559 30.1 140.149 30.21C140.149 30.21 144.259 31.74 144.259 36.4V42.95C144.259 45.58 145.869 46.3 146.159 46.93H139.449C136.249 46.57 136.309 44.02 136.329 42.56V36.92C136.249 35.54 135.839 34.01 132.949 33.96H126.169V46.93H118.039L118.069 11.79L118.059 11.78Z" fill="#AAAAAA"/>
<path d="M181.109 11.78V46.92H206.419V39.69H189.369V31.84H203.929V25.19H189.369V18.85H206.419V11.78H181.109Z" fill="#AAAAAA"/>
<path d="M207.619 18.85H217.649V46.92H225.969V18.85H236.159V11.78H207.619V18.85Z" fill="#AAAAAA"/>
<path d="M100.86 24.18L97.87 33.25H104.03L100.86 24.18ZM96.15 11.77H105.17L117.46 46.91H108.72L106.18 39.61H95.81L93.42 46.91H84.75L96.16 11.77H96.15Z" fill="#AAAAAA"/>
<path d="M178.201 27.3H163.101V34.13H170.271C170.261 35.54 170.481 36.94 168.791 38.92C168.221 39.59 166.251 41.1 163.511 41.1C161.201 41.1 159.541 40.44 158.091 39.21C154.901 36.5 154.151 31.45 154.151 28.8C154.151 25.47 155.471 17.21 163.611 16.87C163.611 16.87 169.101 16.52 170.531 23.13H178.141C177.991 19.78 174.091 10.36 163.611 10.34C159.991 10.34 155.411 11.42 151.611 15.23C148.861 17.99 146.381 22.61 146.381 29.13C146.381 36.2 148.981 40.8 151.361 43.33C155.541 47.77 159.751 48.11 161.941 48.11C163.681 48.11 167.011 47.85 171.321 44.94L172.461 46.91H178.181V27.29L178.201 27.3Z" fill="#AAAAAA"/>
<path d="M229.829 44.61H230.269C230.549 44.61 230.759 44.57 230.759 44.27C230.759 44 230.479 43.96 230.249 43.96H229.839V44.61H229.829ZM229.329 43.57H230.269C230.889 43.57 231.239 43.76 231.239 44.3C231.239 44.75 230.949 44.93 230.589 44.96L231.249 46.04H230.739L230.139 44.98H229.829V46.04H229.339V43.56L229.329 43.57ZM230.219 46.56C231.139 46.56 231.889 45.82 231.889 44.81C231.889 43.8 231.139 43.08 230.219 43.08C229.299 43.08 228.549 43.81 228.549 44.81C228.549 45.81 229.289 46.56 230.219 46.56ZM230.219 42.6C231.419 42.6 232.489 43.47 232.489 44.81C232.489 46.15 231.419 47.03 230.219 47.03C229.019 47.03 227.939 46.16 227.939 44.81C227.939 43.46 229.009 42.6 230.219 42.6Z" fill="#AAAAAA"/>
</g>
<defs>
<clipPath id="clip0_4243_19">
<rect width="241.55" height="60.46" fill="white"/>
</clipPath>
</defs>
</svg>
