<svg width="199" height="45" viewBox="0 0 199 45" fill="none" xmlns="http://www.w3.org/2000/svg">
<path d="M0 37.5657L5.73965 36.6827C5.98389 37.8053 6.47916 38.6608 7.22545 39.2495C7.97174 39.8244 9.01654 40.1119 10.3599 40.1119C11.8389 40.1119 12.9515 39.8381 13.6978 39.2905C14.1999 38.9072 14.4509 38.3939 14.4509 37.7505C14.4509 37.3124 14.3152 36.9497 14.0438 36.6622C13.7589 36.3884 13.1211 36.1352 12.1306 35.9025C7.51718 34.8758 4.59308 33.938 3.35831 33.0893C1.64862 31.912 0.793781 30.2762 0.793781 28.1817C0.793781 26.2926 1.53329 24.7046 3.0123 23.4179C4.49131 22.1311 6.78446 21.4877 9.89174 21.4877C12.8498 21.4877 15.0479 21.9736 16.4862 22.9456C17.9245 23.9175 18.9151 25.3549 19.4578 27.2577L14.0642 28.2638C13.8335 27.4151 13.3925 26.7649 12.7412 26.3131C12.1035 25.8614 11.1876 25.6355 9.9935 25.6355C8.48735 25.6355 7.40863 25.8477 6.75732 26.2721C6.32311 26.5732 6.10601 26.9634 6.10601 27.4425C6.10601 27.8532 6.29598 28.2022 6.6759 28.4897C7.19152 28.873 8.96905 29.4137 12.0085 30.1119C15.0615 30.81 17.1918 31.6656 18.3994 32.6786C19.5935 33.7053 20.1905 35.1359 20.1905 36.9702C20.1905 38.9688 19.3628 40.6868 17.7074 42.1242C16.052 43.5616 13.6028 44.2803 10.3599 44.2803C7.41541 44.2803 5.08156 43.6779 3.35831 42.4733C1.64862 41.2686 0.529188 39.6328 0 37.5657Z" fill="#AAAAAA"/>
<path d="M23.8949 32.576C23.8949 30.6595 24.363 28.8046 25.2992 27.0113C26.2355 25.218 27.5585 23.8491 29.2681 22.9045C30.9914 21.9599 32.9114 21.4877 35.0281 21.4877C38.2983 21.4877 40.9781 22.5623 43.0677 24.7115C45.1573 26.847 46.2021 29.5506 46.2021 32.8224C46.2021 36.1215 45.1438 38.8593 43.027 41.0359C40.9238 43.1988 38.2711 44.2803 35.0689 44.2803C33.0878 44.2803 31.1949 43.8285 29.3903 42.925C27.5992 42.0215 26.2355 40.7005 25.2992 38.962C24.363 37.2098 23.8949 35.0811 23.8949 32.576ZM29.7566 32.884C29.7566 35.0469 30.2655 36.7033 31.2831 37.8532C32.3008 39.0031 33.5559 39.578 35.0485 39.578C36.5411 39.578 37.7894 39.0031 38.7935 37.8532C39.8112 36.7033 40.32 35.0332 40.32 32.8429C40.32 30.7074 39.8112 29.0647 38.7935 27.9148C37.7894 26.7649 36.5411 26.1899 35.0485 26.1899C33.5559 26.1899 32.3008 26.7649 31.2831 27.9148C30.2655 29.0647 29.7566 30.7211 29.7566 32.884Z" fill="#AAAAAA"/>
<path d="M64.9272 43.7875V40.5226C64.1402 41.6862 63.1022 42.6033 61.8132 43.2741C60.5377 43.9449 59.1876 44.2803 57.7629 44.2803C56.311 44.2803 55.0084 43.9586 53.855 43.3152C52.7017 42.6718 51.8672 41.7683 51.3515 40.6047C50.8359 39.4411 50.5781 37.8326 50.5781 35.7792V21.9805H56.2974V32.001C56.2974 35.0674 56.3992 36.9497 56.6027 37.6478C56.8198 38.3323 57.2065 38.8799 57.7629 39.2905C58.3192 39.6875 59.0248 39.886 59.8796 39.886C60.8566 39.886 61.7318 39.6191 62.5052 39.0852C63.2786 38.5376 63.8078 37.8669 64.0928 37.0729C64.3777 36.2652 64.5202 34.3008 64.5202 31.1797V21.9805H70.2395V43.7875H64.9272Z" fill="#AAAAAA"/>
<path d="M95.844 43.7875H90.1247V32.6581C90.1247 30.3035 90.0026 28.784 89.7584 28.0996C89.5141 27.4014 89.1138 26.8607 88.5575 26.4774C88.0147 26.0941 87.3567 25.9025 86.5832 25.9025C85.5927 25.9025 84.7039 26.1762 83.9169 26.7238C83.1299 27.2714 82.5872 27.9969 82.2887 28.9004C82.0037 29.8039 81.8612 31.474 81.8612 33.9107V43.7875H76.1419V21.9805H81.4542V25.1838C83.3403 22.7197 85.7148 21.4877 88.5779 21.4877C89.8398 21.4877 90.9931 21.7204 92.0379 22.1858C93.0827 22.6376 93.8697 23.2194 94.3989 23.9312C94.9417 24.643 95.3148 25.4507 95.5184 26.3542C95.7355 27.2577 95.844 28.5513 95.844 30.2351V43.7875Z" fill="#AAAAAA"/>
<path d="M120.512 28.4281L114.874 29.4548C114.684 28.3186 114.25 27.463 113.572 26.8881C112.907 26.3131 112.039 26.0257 110.967 26.0257C109.542 26.0257 108.402 26.5253 107.547 27.5246C106.706 28.5103 106.285 30.1667 106.285 32.4938C106.285 35.0811 106.713 36.9086 107.568 37.9764C108.436 39.0441 109.596 39.578 111.048 39.578C112.133 39.578 113.022 39.27 113.714 38.654C114.406 38.0243 114.895 36.9497 115.18 35.4302L120.797 36.3953C120.214 38.9962 119.094 40.9606 117.439 42.2885C115.784 43.6163 113.565 44.2803 110.783 44.2803C107.622 44.2803 105.098 43.2741 103.212 41.2618C101.339 39.2495 100.403 36.4637 100.403 32.9045C100.403 29.3042 101.346 26.5048 103.232 24.5061C105.118 22.4938 107.669 21.4877 110.885 21.4877C113.518 21.4877 115.607 22.0626 117.154 23.2125C118.714 24.3487 119.834 26.0873 120.512 28.4281Z" fill="#AAAAAA"/>
<path d="M134.78 21.9805V26.5801H130.872V35.3686C130.872 37.1482 130.906 38.1886 130.974 38.4897C131.055 38.7772 131.225 39.0168 131.483 39.2084C131.754 39.4001 132.08 39.4959 132.46 39.4959C132.989 39.4959 133.756 39.3111 134.76 38.9415L135.248 43.4179C133.918 43.9928 132.412 44.2803 130.73 44.2803C129.698 44.2803 128.769 44.1092 127.941 43.7669C127.114 43.411 126.503 42.9593 126.109 42.4117C125.73 41.8504 125.465 41.0975 125.316 40.153C125.194 39.4822 125.133 38.127 125.133 36.0873V26.5801H122.507V21.9805H125.133V17.6478L130.872 14.2803V21.9805H134.78Z" fill="#AAAAAA"/>
<path d="M152.976 43.7875V40.5226C152.189 41.6862 151.151 42.6033 149.862 43.2741C148.586 43.9449 147.236 44.2803 145.812 44.2803C144.36 44.2803 143.057 43.9586 141.904 43.3152C140.75 42.6718 139.916 41.7683 139.4 40.6047C138.885 39.4411 138.627 37.8326 138.627 35.7792V21.9805H144.346V32.001C144.346 35.0674 144.448 36.9497 144.651 37.6478C144.868 38.3323 145.255 38.8799 145.812 39.2905C146.368 39.6875 147.073 39.886 147.928 39.886C148.905 39.886 149.78 39.6191 150.554 39.0852C151.327 38.5376 151.856 37.8669 152.141 37.0729C152.426 36.2652 152.569 34.3008 152.569 31.1797V21.9805H158.288V43.7875H152.976Z" fill="#AAAAAA"/>
<path d="M169.706 43.7875H163.987V21.9805H169.299V25.0811C170.208 23.6163 171.023 22.6513 171.742 22.1858C172.474 21.7204 173.302 21.4877 174.225 21.4877C175.527 21.4877 176.783 21.8504 177.99 22.576L176.219 27.6068C175.256 26.9771 174.361 26.6622 173.533 26.6622C172.732 26.6622 172.054 26.8881 171.497 27.3398C170.941 27.7779 170.5 28.5787 170.174 29.7423C169.862 30.9059 169.706 33.3426 169.706 37.0523V43.7875Z" fill="#AAAAAA"/>
<path d="M192.991 36.847L198.69 37.8121C197.957 39.9202 196.797 41.5287 195.209 42.6376C193.635 43.7327 191.661 44.2803 189.286 44.2803C185.528 44.2803 182.746 43.0414 180.941 40.5636C179.517 38.5787 178.804 36.0736 178.804 33.0482C178.804 29.4343 179.741 26.6074 181.613 24.5677C183.486 22.5144 185.853 21.4877 188.716 21.4877C191.932 21.4877 194.47 22.5623 196.329 24.7115C198.188 26.847 199.076 30.1256 198.995 34.5472H184.666C184.707 36.2584 185.168 37.5931 186.05 38.5513C186.932 39.4959 188.031 39.9682 189.347 39.9682C190.243 39.9682 190.996 39.7218 191.607 39.2289C192.217 38.7361 192.679 37.9421 192.991 36.847ZM193.316 31.0154C193.276 29.3453 192.848 28.079 192.034 27.2166C191.22 26.3405 190.229 25.9025 189.062 25.9025C187.814 25.9025 186.783 26.361 185.969 27.2782C185.155 28.1954 184.754 29.4411 184.768 31.0154H193.316Z" fill="#AAAAAA"/>
<path d="M125.855 0V3.35883L138.114 9.63096L126.355 17L145.855 11.42V8.06119L125.855 0Z" fill="#AAAAAA"/>
</svg>
